<svg xmlns="http://www.w3.org/2000/svg" viewBox="0 0 64 64" role="img" aria-label="App Service">
  <defs>
    <linearGradient id="appservice-grad" x1="12" y1="12" x2="52" y2="52" gradientUnits="userSpaceOnUse">
      <stop stop-color="#5B8BFF"/>
      <stop offset="1" stop-color="#2E65F0"/>
    </linearGradient>
  </defs>
  <rect x="4" y="4" width="56" height="56" rx="12" fill="#EEF3FF"/>
  <circle cx="32" cy="32" r="22" fill="url(#appservice-grad)" opacity="0.15"/>
  <circle cx="32" cy="32" r="16" fill="#FFFFFF" opacity="0.85"/>
  <path d="M24 20c0-1.1.9-2 2-2h12c1.1 0 2 .9 2 2v6l-4 4h-8l-4-4v-6Z" fill="url(#appservice-grad)"/>
  <path d="M28 30h8v6c0 1.1-.9 2-2 2h-4c-1.1 0-2-.9-2-2v-6Z" fill="#DDE7FF"/>
  <circle cx="24" cy="36" r="4" fill="#2E65F0"/>
  <circle cx="40" cy="36" r="4" fill="#2E65F0"/>
  <path d="M22 42h20a2 2 0 0 1 2 2v2H20v-2a2 2 0 0 1 2-2Z" fill="#153B8A" opacity="0.2"/>
</svg>
