<svg xmlns="http://www.w3.org/2000/svg" viewBox="0 0 64 64" role="img" aria-label="Resource">
  <defs>
    <linearGradient id="gen-grad" x1="12" y1="12" x2="52" y2="52" gradientUnits="userSpaceOnUse">
      <stop stop-color="#9AA6B5"/>
      <stop offset="1" stop-color="#5B6570"/>
    </linearGradient>
  </defs>
  <rect x="6" y="10" width="52" height="44" rx="10" fill="url(#gen-grad)" stroke="#3C434A" stroke-width="2"/>
  <circle cx="32" cy="32" r="10" fill="#F4F7FA" stroke="#3C434A" stroke-width="1.5"/>
  <path d="M32 24c2.8 0 5 2 5 4.6 0 2.7-2.2 4.4-4.4 4.4-.4 0-.6.2-.6.5v1h-2v-1.4c0-1.3 1-2.4 2.3-2.5 1.2-.2 2.7-1 2.7-2.6C34 26 33.1 25 32 25c-1 0-1.9.7-2 1.7l-2-.3C28.4 24.7 30 24 32 24Zm0 12.5a1.5 1.5 0 1 1 0 3 1.5 1.5 0 0 1 0-3Z" fill="#3C434A"/>
</svg>
